<svg id="Layer_1" data-name="Layer 1" xmlns="http://www.w3.org/2000/svg" viewBox="0 0 274.76 114.71"><defs><style>.cls-1{fill:#007497;}.cls-2{fill:#0080a6;}.cls-3{fill:#97c93d;}.cls-4{fill:#005373;}</style></defs><path class="cls-1" d="M88.34,65.38l0,.06h0Z"/><path class="cls-2" d="M106.18,49.61c4.64-3.21,8.55-5.87,12.93-7.77L124,36.08,138.74,17l17.78,23.37a63.13,63.13,0,0,1,17.41,6.08L138.74,2.63,111.67,36.07,93.45,59A51.71,51.71,0,0,1,106.18,49.61Z"/><path class="cls-3" d="M139.22,41.71c-22.21,0-42.17,9.76-50.93,23.74H99.24c7.69-9.88,23.33-16.55,40-16.55s28.51,6.67,36.19,16.55h13.65C183.38,51.35,161.44,41.71,139.22,41.71Z"/><path class="cls-4" d="M267.87,91.66a3.46,3.46,0,1,0-3.46-3.46A3.46,3.46,0,0,0,267.87,91.66Zm0-6.13a2.68,2.68,0,1,1-2.57,2.67A2.59,2.59,0,0,1,267.87,85.53ZM252,84.75l-19.38,28.4h6.79l3.06-4.73h19l3.12,4.73h6.8Zm-6.24,18.71L252,93.94l6.23,9.52Zm21.69-14.88h.21l.83,1.4h1l-.93-1.44a1.08,1.08,0,0,0,.82-1.12c0-.87-.8-1.07-1.64-1.07h-1.16V90h.89Zm0-1.5h.44c.22,0,.58,0,.58.39s-.36.39-.58.39h-.44Zm-152-1.89-11.8,18.94L92,85.19H84.77l18.83,28.52,18.93-28.52Zm73,9.58c0-4.34-3-9.58-11-9.58H158.27v28h6.07v-8.74h11.28l6.6,8.74h7.33L182,103.86A10.19,10.19,0,0,0,188.4,94.77Zm-11.92,4.29H164.34V90.6h12.14c4.63,0,5.41,2.34,5.41,4.17C181.89,96.78,181.11,99.06,176.48,99.06Zm-62,14.09h6.8l3.06-4.73h19l3.12,4.73h6.79l-19.38-28.4Zm13.14-9.69,6.24-9.52,6.24,9.52ZM66.32,85.19H49.61v28H66.32c8.57,0,18-4,18-14S74.89,85.19,66.32,85.19Zm-.73,22.73H55.68V90.43h9.91c5.85,0,12.2,1.95,12.2,8.74S71.44,107.92,65.59,107.92ZM227.21,94.77c0-4.34-3-9.58-11-9.58h-19.1v28h6.07v-8.74h11.27l6.61,8.74h7.33l-7.59-9.29A10.18,10.18,0,0,0,227.21,94.77Zm-11.92,4.29H203.15V90.6h12.14c4.62,0,5.4,2.34,5.4,4.17C220.69,96.78,219.91,99.06,215.29,99.06ZM3.08,113.15h7.07l3.95-6.24H33.48l4,6.24h7.07L23.79,81.52ZM17.5,101.51l6.29-9.85L30,101.51Z"/></svg>